<?xml version="1.0" encoding="UTF-8"?>
<svg width="19px" height="19px" viewBox="0 0 19 19" version="1.1" xmlns="http://www.w3.org/2000/svg" xmlns:xlink="http://www.w3.org/1999/xlink">
    <!-- Generator: Sketch 59.1 (86144) - https://sketch.com -->
    <title>Shape</title>
    <desc>Created with Sketch.</desc>
    <g id="Page-1" stroke="none" stroke-width="1" fill="none" fill-rule="evenodd">
        <g id="close" transform="translate(-1.000000, 0.000000)" fill="#FFFFFF" fill-rule="nonzero">
            <path d="M18.2213,14.2102 C19.3125,15.3012 19.3125,17.0705 18.2213,18.162 C17.6758,18.7079 16.9607,18.9803 16.2459,18.9803 C15.5305,18.9803 14.8151,18.7079 14.2699,18.162 L10.0145,13.9063 L5.7591,18.1616 C5.2131,18.7076 4.4984,18.98 3.7833,18.98 C3.0686,18.98 2.3531,18.7075 1.8079,18.1616 C0.7164,17.0705 0.7164,15.3013 1.8079,14.2098 L6.0629,9.9548 L1.8076,5.6991 C0.7161,4.6079 0.7161,2.8387 1.8076,1.7475 C2.8984,0.6561 4.6676,0.6561 5.7591,1.7475 L10.0145,6.0029 L14.2698,1.7475 C15.361,0.6561 17.1302,0.6561 18.2217,1.7475 C19.3128,2.8387 19.3128,4.6079 18.2217,5.6991 L13.966,9.9548 L18.2213,14.2101 L18.2213,14.2102 Z" id="Shape"></path>
        </g>
    </g>
</svg>